<svg width="188" height="217" viewBox="0 0 188 217" fill="none" xmlns="http://www.w3.org/2000/svg">
<path d="M89.085 213.895C92.2625 215.805 96.236 215.8 99.4091 213.883L183.172 163.262C186.169 161.451 188 158.205 188 154.704V10C188 4.47716 183.523 0 178 0H10C4.47715 0 0 4.47715 0 10V154.688C0 158.198 1.83996 161.451 4.84804 163.259L89.085 213.895Z" fill="#EE2020"/>
<path d="M35.5409 170.5L96.0409 122L152.541 167.5C152.541 167.5 139.762 186.496 127.541 193.5C116.486 199.835 108.78 201.763 96.0409 202C82.3568 202.254 74.1823 199.817 62.0409 193.5C49.8847 187.175 35.5409 170.5 35.5409 170.5Z" fill="white"/>
<path d="M96.5406 109L156.041 156.5C156.041 156.5 158.541 154 160.041 144C161.091 137 160.321 129.681 159.541 125C157.541 113 147.041 101.5 147.041 101.5C147.041 101.5 143.215 108.943 140.041 112.5C136.445 116.53 130.041 121 130.041 121C130.041 121 138.217 101.122 139.541 87.5C140.808 74.4658 141.903 65.1567 138.541 52.5C135.715 41.863 132.53 36.0645 125.041 28C118.885 21.372 105.541 15.5 105.541 15.5C105.541 15.5 108.977 34.2087 105.541 45C103.071 52.7544 100.541 56.5 95.0409 63C87.0988 72.3861 79.4089 76.3017 72.5409 86.5C67.8572 93.4548 66.0463 96.4983 63.5406 104.5C60.8406 113.122 61.0406 127.5 61.0406 127.5C61.0406 127.5 56.2185 118.346 54.5406 112C52.1898 103.11 54.0409 89.5 54.0409 89.5C54.0409 89.5 43.1367 95.7762 38.5406 102C33.0875 109.384 30.2341 114.086 28.0408 123C25.7969 132.119 25.5785 137.659 26.5409 147C27.1334 152.752 30.5406 162 30.5406 162L96.5406 109Z" fill="white"/>
<path d="M88.0408 2C88.0408 2 98.4136 11.7365 101.041 20C104.185 29.8905 102.573 36.7414 99.0408 46.5C95.8332 55.3606 85.5408 66.5 85.5408 66.5C85.5408 66.5 79.3591 61.4965 77.5408 57C75.3448 51.5694 74.5569 47.2746 75.5409 41.5C77.1401 32.1154 84.7561 29.3511 86.5409 20C87.8587 13.0952 88.0408 2 88.0408 2Z" fill="white"/>
<rect x="84.5" y="141.5" width="9" height="9" fill="#EE2020" stroke="#EE2020"/>
<rect x="96.5" y="141.5" width="9" height="9" fill="#EE2020" stroke="#EE2020"/>
<rect x="84.5" y="153.5" width="9" height="9" fill="#EE2020" stroke="#EE2020"/>
<rect x="96.5" y="153.5" width="9" height="9" fill="#EE2020" stroke="#EE2020"/>
</svg>
