<svg width="134" height="188" viewBox="0 0 134 188" fill="none" xmlns="http://www.w3.org/2000/svg">
<path d="M3.17866 11.2432C2.41963 6.10962 6.39782 1.5 11.5872 1.5H122.789C127.867 1.5 131.812 5.92286 131.234 10.9676L123.488 78.5704C123.376 79.5472 123.39 80.5343 123.529 81.5076L131.627 138.137C132.089 141.364 130.664 144.571 127.959 146.391L73.6584 182.943C70.7546 184.897 66.9495 184.872 64.072 182.879L11.1898 146.25C8.65275 144.492 7.26753 141.498 7.57083 138.427L13.2029 81.3943C13.2954 80.4576 13.2726 79.5132 13.1349 78.5821L3.17866 11.2432Z" fill="#EE2020" stroke="#E38800" stroke-width="3"/>
<path d="M21.7366 140.554C26.9461 149.299 33.9708 156.464 42.1956 161.423C50.4205 166.383 59.5944 168.984 68.9139 169C78.2335 169.016 87.4143 166.446 95.6523 161.515C103.89 156.584 110.934 149.442 116.167 140.715L69 104.5L21.7366 140.554Z" fill="white"/>
<rect x="60" y="126" width="8" height="8" fill="#EE2020"/>
<rect x="70" y="126" width="8" height="8" fill="#EE2020"/>
<rect x="60" y="136" width="8" height="8" fill="#EE2020"/>
<rect x="70" y="136" width="8" height="8" fill="#EE2020"/>
<path d="M17.866 135C17.866 135 14.3947 117.487 16.9213 106.75C18.9123 98.2889 20.7426 93.2084 26.3678 86.6398C29.5418 82.9335 34.8696 78.5 35.8142 78.5C36.7588 78.5 34.1776 89.7858 35.8142 96.6949C37.0867 102.067 41.0097 110.102 41.4821 109.623C41.9545 109.144 41.6879 91.6632 46.6777 81.8517C51.1069 73.1424 60.0099 69.3971 66.0429 61.7415C71.1555 55.254 72.6752 53.7389 75.4894 45.9407C78.6604 37.1533 75.9616 22 76.434 22C76.9064 22 86.5259 26.7878 91.076 32.0551C96.6288 38.4831 97.6275 43.8528 99.5778 52.1653C102.224 63.4439 100.873 70.333 99.5778 81.8517C98.6193 90.3776 94.8546 102.919 95.3269 103.398C95.7993 103.877 102.542 98.808 104.301 93.822C105.303 90.9831 104.624 85.6822 105.246 85.6822C105.867 85.6822 111.255 91.8531 113.748 96.6949C117.329 103.654 117.908 108.478 117.998 116.326C118.071 122.567 115.637 132.127 115.637 132.127L69.3492 95.2585L17.866 135Z" fill="white"/>
<path d="M60.9645 60C60.5053 60 54.7362 53.049 54.0782 47.5859C53.364 41.6557 57.7509 34.2852 58.669 32.9551C59.5872 31.625 61.8063 28.3241 62.8008 24.9746C64.5824 18.9737 61.4235 8.57037 61.8826 9.01372C62.3417 9.45708 69.1766 17.2625 71.5233 23.6446C73.4664 28.929 74.4267 32.2551 73.8187 37.8321C73.2607 42.9517 71.8685 45.7742 69.2279 50.2461C66.7034 54.5214 61.4236 60 60.9645 60Z" fill="white"/>
</svg>
